<?xml version="1.0" encoding="UTF-8" standalone="no"?>
<!DOCTYPE svg PUBLIC "-//W3C//DTD SVG 1.1//EN"
 "http://www.w3.org/Graphics/SVG/1.1/DTD/svg11.dtd">
<!-- Generated by graphviz version 2.43.0 (0)
 -->
<!-- Title: full_adder Pages: 1 -->
<svg width="829pt" height="285pt"
 viewBox="0.00 0.00 829.46 285.00" xmlns="http://www.w3.org/2000/svg" xmlns:xlink="http://www.w3.org/1999/xlink">
<g id="graph0" class="graph" transform="scale(1 1) rotate(0) translate(4 281)">
<title>full_adder</title>
<polygon fill="white" stroke="transparent" points="-4,4 -4,-281 825.46,-281 825.46,4 -4,4"/>
<text text-anchor="middle" x="410.73" y="-7.8" font-family="Times,serif" font-size="14.00">full_adder</text>
<!-- n1 -->
<g id="node1" class="node">
<title>n1</title>
<polygon fill="none" stroke="black" points="54,-106.04 54,-120.96 38.18,-131.5 15.82,-131.5 0,-120.96 0,-106.04 15.82,-95.5 38.18,-95.5 54,-106.04"/>
<text text-anchor="middle" x="27" y="-109.8" font-family="Times,serif" font-size="14.00">a</text>
</g>
<!-- c12 -->
<g id="node9" class="node">
<title>c12</title>
<polygon fill="none" stroke="black" points="90.5,-88.5 90.5,-134.5 214.5,-134.5 214.5,-88.5 90.5,-88.5"/>
<text text-anchor="middle" x="104" y="-119.3" font-family="Times,serif" font-size="14.00">A</text>
<polyline fill="none" stroke="black" points="90.5,-111.5 117.5,-111.5 "/>
<text text-anchor="middle" x="104" y="-96.3" font-family="Times,serif" font-size="14.00">B</text>
<polyline fill="none" stroke="black" points="117.5,-88.5 117.5,-134.5 "/>
<text text-anchor="middle" x="153" y="-115.3" font-family="Times,serif" font-size="14.00">$94</text>
<text text-anchor="middle" x="153" y="-100.3" font-family="Times,serif" font-size="14.00">$_XOR_</text>
<polyline fill="none" stroke="black" points="188.5,-88.5 188.5,-134.5 "/>
<text text-anchor="middle" x="201.5" y="-107.8" font-family="Times,serif" font-size="14.00">Y</text>
</g>
<!-- n1&#45;&gt;c12 -->
<g id="edge1" class="edge">
<title>n1:e&#45;&gt;c12:w</title>
<path fill="none" stroke="black" d="M54,-113.5C66.58,-113.5 71.23,-119.24 79.97,-122.02"/>
<polygon fill="black" stroke="black" points="79.6,-125.51 90,-123.5 80.62,-118.58 79.6,-125.51"/>
</g>
<!-- c14 -->
<g id="node11" class="node">
<title>c14</title>
<polygon fill="none" stroke="black" points="90,-23.5 90,-69.5 215,-69.5 215,-23.5 90,-23.5"/>
<text text-anchor="middle" x="103.5" y="-54.3" font-family="Times,serif" font-size="14.00">A</text>
<polyline fill="none" stroke="black" points="90,-46.5 117,-46.5 "/>
<text text-anchor="middle" x="103.5" y="-31.3" font-family="Times,serif" font-size="14.00">B</text>
<polyline fill="none" stroke="black" points="117,-23.5 117,-69.5 "/>
<text text-anchor="middle" x="153" y="-50.3" font-family="Times,serif" font-size="14.00">$96</text>
<text text-anchor="middle" x="153" y="-35.3" font-family="Times,serif" font-size="14.00">$_AND_</text>
<polyline fill="none" stroke="black" points="189,-23.5 189,-69.5 "/>
<text text-anchor="middle" x="202" y="-42.8" font-family="Times,serif" font-size="14.00">Y</text>
</g>
<!-- n1&#45;&gt;c14 -->
<g id="edge2" class="edge">
<title>n1:e&#45;&gt;c14:w</title>
<path fill="none" stroke="black" d="M54,-113.5C78.88,-113.5 66.31,-73.62 80.07,-61.78"/>
<polygon fill="black" stroke="black" points="81.6,-64.96 90,-58.5 79.41,-58.31 81.6,-64.96"/>
</g>
<!-- n2 -->
<g id="node2" class="node">
<title>n2</title>
<polygon fill="none" stroke="black" points="54,-42.04 54,-56.96 38.18,-67.5 15.82,-67.5 0,-56.96 0,-42.04 15.82,-31.5 38.18,-31.5 54,-42.04"/>
<text text-anchor="middle" x="27" y="-45.8" font-family="Times,serif" font-size="14.00">b</text>
</g>
<!-- n2&#45;&gt;c12 -->
<g id="edge3" class="edge">
<title>n2:e&#45;&gt;c12:w</title>
<path fill="none" stroke="black" d="M54,-49.5C77.1,-49.5 67.35,-85.1 80.19,-96.22"/>
<polygon fill="black" stroke="black" points="79.41,-99.65 90,-99.5 81.63,-93.01 79.41,-99.65"/>
</g>
<!-- n2&#45;&gt;c14 -->
<g id="edge4" class="edge">
<title>n2:e&#45;&gt;c14:w</title>
<path fill="none" stroke="black" d="M54,-49.5C67.27,-49.5 71.16,-40.71 80.04,-36.59"/>
<polygon fill="black" stroke="black" points="80.93,-39.97 90,-34.5 79.49,-33.12 80.93,-39.97"/>
</g>
<!-- n3 -->
<g id="node3" class="node">
<title>n3</title>
<polygon fill="none" stroke="black" points="539,-164.5 508.83,-146.5 539,-128.5 569.16,-146.5 539,-164.5"/>
<text text-anchor="middle" x="539" y="-142.8" font-family="Times,serif" font-size="14.00">c1</text>
</g>
<!-- c16 -->
<g id="node13" class="node">
<title>c16</title>
<polygon fill="none" stroke="black" points="605.33,-96.5 605.33,-142.5 719.33,-142.5 719.33,-96.5 605.33,-96.5"/>
<text text-anchor="middle" x="618.83" y="-127.3" font-family="Times,serif" font-size="14.00">A</text>
<polyline fill="none" stroke="black" points="605.33,-119.5 632.33,-119.5 "/>
<text text-anchor="middle" x="618.83" y="-104.3" font-family="Times,serif" font-size="14.00">B</text>
<polyline fill="none" stroke="black" points="632.33,-96.5 632.33,-142.5 "/>
<text text-anchor="middle" x="662.83" y="-123.3" font-family="Times,serif" font-size="14.00">$98</text>
<text text-anchor="middle" x="662.83" y="-108.3" font-family="Times,serif" font-size="14.00">$_OR_</text>
<polyline fill="none" stroke="black" points="693.33,-96.5 693.33,-142.5 "/>
<text text-anchor="middle" x="706.33" y="-115.8" font-family="Times,serif" font-size="14.00">Y</text>
</g>
<!-- n3&#45;&gt;c16 -->
<g id="edge6" class="edge">
<title>n3:e&#45;&gt;c16:w</title>
<path fill="none" stroke="black" d="M569.33,-146.5C582.6,-146.5 586.49,-137.71 595.37,-133.59"/>
<polygon fill="black" stroke="black" points="596.26,-136.97 605.33,-131.5 594.82,-130.12 596.26,-136.97"/>
</g>
<!-- n4 -->
<g id="node4" class="node">
<title>n4</title>
<polygon fill="none" stroke="black" points="539,-110.5 508.83,-92.5 539,-74.5 569.16,-92.5 539,-110.5"/>
<text text-anchor="middle" x="539" y="-88.8" font-family="Times,serif" font-size="14.00">c2</text>
</g>
<!-- n4&#45;&gt;c16 -->
<g id="edge8" class="edge">
<title>n4:e&#45;&gt;c16:w</title>
<path fill="none" stroke="black" d="M569.33,-92.5C582.6,-92.5 586.49,-101.29 595.37,-105.41"/>
<polygon fill="black" stroke="black" points="594.82,-108.88 605.33,-107.5 596.26,-102.03 594.82,-108.88"/>
</g>
<!-- n5 -->
<g id="node5" class="node">
<title>n5</title>
<polygon fill="none" stroke="black" points="54,-165.04 54,-179.96 38.18,-190.5 15.82,-190.5 0,-179.96 0,-165.04 15.82,-154.5 38.18,-154.5 54,-165.04"/>
<text text-anchor="middle" x="27" y="-168.8" font-family="Times,serif" font-size="14.00">cin</text>
</g>
<!-- c13 -->
<g id="node10" class="node">
<title>c13</title>
<polygon fill="none" stroke="black" points="348.16,-230.5 348.16,-276.5 472.16,-276.5 472.16,-230.5 348.16,-230.5"/>
<text text-anchor="middle" x="361.66" y="-261.3" font-family="Times,serif" font-size="14.00">A</text>
<polyline fill="none" stroke="black" points="348.16,-253.5 375.16,-253.5 "/>
<text text-anchor="middle" x="361.66" y="-238.3" font-family="Times,serif" font-size="14.00">B</text>
<polyline fill="none" stroke="black" points="375.16,-230.5 375.16,-276.5 "/>
<text text-anchor="middle" x="410.66" y="-257.3" font-family="Times,serif" font-size="14.00">$95</text>
<text text-anchor="middle" x="410.66" y="-242.3" font-family="Times,serif" font-size="14.00">$_XOR_</text>
<polyline fill="none" stroke="black" points="446.16,-230.5 446.16,-276.5 "/>
<text text-anchor="middle" x="459.16" y="-249.8" font-family="Times,serif" font-size="14.00">Y</text>
</g>
<!-- n5&#45;&gt;c13 -->
<g id="edge9" class="edge">
<title>n5:e&#45;&gt;c13:w</title>
<path fill="none" stroke="black" d="M54,-172.5C59.75,-172.5 245.34,-235.45 251,-236.5 289.67,-243.65 302.47,-241.91 337.24,-241.55"/>
<polygon fill="black" stroke="black" points="337.68,-245.05 347.66,-241.5 337.65,-238.05 337.68,-245.05"/>
</g>
<!-- c15 -->
<g id="node12" class="node">
<title>c15</title>
<polygon fill="none" stroke="black" points="347.66,-152.5 347.66,-198.5 472.66,-198.5 472.66,-152.5 347.66,-152.5"/>
<text text-anchor="middle" x="361.16" y="-183.3" font-family="Times,serif" font-size="14.00">A</text>
<polyline fill="none" stroke="black" points="347.66,-175.5 374.66,-175.5 "/>
<text text-anchor="middle" x="361.16" y="-160.3" font-family="Times,serif" font-size="14.00">B</text>
<polyline fill="none" stroke="black" points="374.66,-152.5 374.66,-198.5 "/>
<text text-anchor="middle" x="410.66" y="-179.3" font-family="Times,serif" font-size="14.00">$97</text>
<text text-anchor="middle" x="410.66" y="-164.3" font-family="Times,serif" font-size="14.00">$_AND_</text>
<polyline fill="none" stroke="black" points="446.66,-152.5 446.66,-198.5 "/>
<text text-anchor="middle" x="459.66" y="-171.8" font-family="Times,serif" font-size="14.00">Y</text>
</g>
<!-- n5&#45;&gt;c15 -->
<g id="edge10" class="edge">
<title>n5:e&#45;&gt;c15:w</title>
<path fill="none" stroke="black" d="M54,-172.5C181.14,-172.5 215.3,-163.97 337.54,-163.52"/>
<polygon fill="black" stroke="black" points="337.67,-167.02 347.66,-163.5 337.66,-160.02 337.67,-167.02"/>
</g>
<!-- n6 -->
<g id="node6" class="node">
<title>n6</title>
<polygon fill="none" stroke="black" points="821.52,-112.04 821.52,-126.96 802.12,-137.5 774.67,-137.5 755.26,-126.96 755.26,-112.04 774.67,-101.5 802.12,-101.5 821.52,-112.04"/>
<text text-anchor="middle" x="788.39" y="-115.8" font-family="Times,serif" font-size="14.00">cout</text>
</g>
<!-- n7 -->
<g id="node7" class="node">
<title>n7</title>
<polygon fill="none" stroke="black" points="281.33,-227.5 251.17,-209.5 281.33,-191.5 311.5,-209.5 281.33,-227.5"/>
<text text-anchor="middle" x="281.33" y="-205.8" font-family="Times,serif" font-size="14.00">s1</text>
</g>
<!-- n7&#45;&gt;c13 -->
<g id="edge13" class="edge">
<title>n7:e&#45;&gt;c13:w</title>
<path fill="none" stroke="black" d="M311.66,-209.5C337.09,-209.5 323.55,-250.86 338.02,-262.49"/>
<polygon fill="black" stroke="black" points="337.08,-265.86 347.66,-265.5 339.16,-259.18 337.08,-265.86"/>
</g>
<!-- n7&#45;&gt;c15 -->
<g id="edge14" class="edge">
<title>n7:e&#45;&gt;c15:w</title>
<path fill="none" stroke="black" d="M311.66,-209.5C326.31,-209.5 328.6,-196.07 337.84,-190.2"/>
<polygon fill="black" stroke="black" points="338.95,-193.52 347.66,-187.5 337.09,-186.77 338.95,-193.52"/>
</g>
<!-- n8 -->
<g id="node8" class="node">
<title>n8</title>
<polygon fill="none" stroke="black" points="821.52,-246.04 821.52,-260.96 802.12,-271.5 774.67,-271.5 755.26,-260.96 755.26,-246.04 774.67,-235.5 802.12,-235.5 821.52,-246.04"/>
<text text-anchor="middle" x="788.39" y="-249.8" font-family="Times,serif" font-size="14.00">sum</text>
</g>
<!-- c12&#45;&gt;n7 -->
<g id="edge12" class="edge">
<title>c12:e&#45;&gt;n7:w</title>
<path fill="none" stroke="black" d="M215,-111.5C257.41,-111.5 213.6,-193.38 241.19,-207.45"/>
<polygon fill="black" stroke="black" points="240.5,-210.88 251,-209.5 241.93,-204.03 240.5,-210.88"/>
</g>
<!-- c13&#45;&gt;n8 -->
<g id="edge15" class="edge">
<title>c13:e&#45;&gt;n8:w</title>
<path fill="none" stroke="black" d="M472.66,-253.5C594.86,-253.5 627.91,-253.5 745.23,-253.5"/>
<polygon fill="black" stroke="black" points="745.33,-257 755.33,-253.5 745.33,-250 745.33,-257"/>
</g>
<!-- c14&#45;&gt;n3 -->
<g id="edge5" class="edge">
<title>c14:e&#45;&gt;n3:w</title>
<path fill="none" stroke="black" d="M215,-46.5C280.71,-46.5 425.31,-137.34 498.42,-145.86"/>
<polygon fill="black" stroke="black" points="498.47,-149.37 508.66,-146.5 498.9,-142.38 498.47,-149.37"/>
</g>
<!-- c15&#45;&gt;n4 -->
<g id="edge7" class="edge">
<title>c15:e&#45;&gt;n4:w</title>
<path fill="none" stroke="black" d="M472.66,-175.5C508.79,-175.5 476.6,-108.5 498.85,-94.89"/>
<polygon fill="black" stroke="black" points="499.78,-98.27 508.66,-92.5 498.12,-91.47 499.78,-98.27"/>
</g>
<!-- c16&#45;&gt;n6 -->
<g id="edge11" class="edge">
<title>c16:e&#45;&gt;n6:w</title>
<path fill="none" stroke="black" d="M719.33,-119.5C731.33,-119.5 736.58,-119.5 745.2,-119.5"/>
<polygon fill="black" stroke="black" points="745.33,-123 755.33,-119.5 745.33,-116 745.33,-123"/>
</g>
</g>
</svg>
